<svg clip-rule="evenodd" fill-rule="evenodd" stroke-linejoin="round" stroke-miterlimit="2" viewBox="0 0 560 400" xmlns="http://www.w3.org/2000/svg"><g transform="matrix(1.25009 0 0 1.25009 29.9651 162.607)"><path d="m3.27 1.289c-.154.712-.327 1.519-.383 1.794s-.199.65-.317.834c-.118.183-.268.82-.333 1.416-.066.596-.293 1.459-.506 1.917-.212.458-.469 1.171-.571 1.583-1.287 5.242-1.419 6.647-.687 7.303.8.715.946.816 1.373.951.222.07.502.267.622.437s.323.309.452.309c.565 0 .58.542.58 20.388 0 17.85.025 19.753.264 19.845.662.254 32.586.108 32.845-.151.138-.138.32-.209.404-.157.085.052.154.016.154-.081 0-.098.227-.177.505-.177.295 0 .545-.104.601-.25.053-.138.219-.253.37-.257.15-.004.574-.189.94-.41.367-.222.911-.527 1.209-.679.298-.151.541-.342.541-.423s.105-.148.233-.148.473-.225.767-.5c.295-.275.605-.5.689-.5s.226-.191.315-.425c.092-.244.375-.499.663-.6.294-.102.54-.328.595-.545.051-.204.313-.5.581-.659.269-.158.575-.453.681-.654.106-.202.242-.404.302-.45.346-.266 1.174-1.748 1.174-2.103 0-.23.181-.658.402-.95.234-.309.487-.983.604-1.614.111-.596.306-1.249.432-1.452.258-.416.338-5.143.089-5.242-.077-.031-.31-.768-.518-1.639-.224-.938-.507-1.705-.694-1.881-.173-.164-.315-.473-.315-.686 0-.214-.15-.579-.333-.812s-.333-.493-.333-.578c0-.272-1.191-1.695-1.5-1.793-.164-.052-.39-.317-.503-.589-.112-.272-.265-.494-.34-.494-.074 0-.555-.407-1.068-.904-1.02-.988-2.187-1.752-3.076-2.015-.702-.207-.833-.507-.282-.645.227-.057.461-.254.519-.437s.195-.333.304-.333c.253 0 1.946-1.717 1.946-1.974 0-.106.091-.192.203-.192.218 0 .963-.794.963-1.026 0-.078.105-.141.232-.141.128 0 .356-.281.508-.625.151-.344.459-.925.683-1.292.224-.366.533-1.004.687-1.416.154-.413.38-.869.502-1.013.122-.145.222-.636.222-1.092s.084-.913.188-1.017c.442-.442.029-6.494-.524-7.67-.199-.424-.391-.92-.426-1.102-.035-.183-.126-.375-.201-.427-.076-.053-.265-.434-.42-.846-.308-.819-1.191-1.944-1.468-1.871-.096.025-.135-.017-.087-.095.047-.077-.06-.245-.238-.374-.178-.128-.324-.33-.324-.447s-.101-.213-.224-.213c-.122 0-.305-.181-.406-.402s-.354-.457-.562-.523c-.209-.066-.519-.297-.689-.514-.171-.217-.42-.394-.553-.394-.134 0-.286-.112-.339-.249-.052-.136-.388-.336-.747-.443-.358-.108-.734-.296-.836-.419-.102-.122-.434-.223-.738-.223s-.603-.08-.663-.178c-.061-.098-.215-.137-.344-.088-.128.049-.233.017-.233-.072s-.15-.162-.333-.162-.333-.072-.333-.16c0-.102-5.962-.164-16.308-.17l-16.308-.009zm51.691-1.056c-.186.14-.344.607-.445 1.319-.086.607-.215 1.199-.288 1.317-.114.185-.191.552-.463 2.214-.03.184-.135.533-.233.776-.098.244-.23.919-.293 1.5-.063.582-.218 1.311-.343 1.62-.126.309-.229.703-.229.875s-.075.313-.167.313-.167.439-.167.986c0 .542-.071 1.011-.158 1.041-.641.226-.75 4.306-.115 4.306.129 0 .274.15.322.333.053.205.227.334.451.334.2 0 .555.15.788.333s.546.333.695.333c.618 0 .624.178.594 20.498-.021 14.24.022 19.999.154 20.209.172.276.904.293 12.132.293 12.82 0 12.804.001 12.804-.834 0-.28.141-.938.314-1.463.172-.524.366-1.439.429-2.034.064-.595.176-1.158.249-1.25.108-.137.285-.954.432-2.002.013-.092.117-.392.231-.667s.248-.912.298-1.416c.051-.504.163-1.007.249-1.116.228-.289.627-1.879.629-2.507.001-.296.19-1.186.419-1.977s.417-1.757.417-2.147v-.709l-2.596-.12c-1.428-.067-3.971-.067-5.652-.001l-3.055.12-.273-.529c-.25-.484-.27-2.223-.224-20.167.039-15.337.005-19.68-.155-19.829-.313-.292-16.357-.246-16.751.048m33.91.142c-.24.487-.565 2.113-.457 2.288.046.075-.017.174-.14.222-.124.047-.274.443-.334.88-.059.437-.206.912-.326 1.056-.119.144-.359.862-.534 1.596-.175.733-.414 1.432-.532 1.553s-.215.473-.215.781-.083.772-.185 1.03-.364 1.144-.581 1.969c-.218.825-.427 1.613-.464 1.751s-.151.559-.253.937c-.359 1.332.256 2.562 1.281 2.562.124 0 .47.187.77.416.301.229.748.433.995.454.628.052.597-.493.645 11.594.031 7.929.094 10.914.232 11 .105.066.277.719.383 1.453.203 1.413.765 3.444 1.105 4 .112.183.26.521.328.75s.263.595.434.814c.171.218.31.532.31.696 0 .165.096.398.214.519.117.122.432.671.7 1.221s.641 1.15.83 1.333.554.616.811.962c.528.709 1.243 1.455 1.395 1.455.056 0 .54.45 1.077 1 .536.55 1.084 1 1.216 1s.301.096.374.214c.268.431 1.106.952 1.532.952.257 0 .524.138.646.334.114.183.36.333.545.333.186 0 .381.112.433.25.053.137.204.25.337.25.132 0 .55.15.93.333.379.184.824.334.988.334.303 0 1.39.37 2.123.724 1.166.561 11.769.19 12.195-.428.053-.076.499-.186.992-.245.493-.058 1.087-.205 1.321-.327.233-.122.503-.223.6-.223.275-.002 1.072-.405 1.073-.543.001-.069.251-.125.555-.125.382 0 .665-.129.916-.417.199-.229.471-.416.603-.416.133 0 .35-.154.482-.343.132-.188.41-.355.618-.37.208-.016.413-.162.456-.325.042-.162.193-.296.335-.296.141 0 .451-.215.688-.478.238-.263.601-.53.807-.594s.418-.292.472-.506c.054-.215.247-.429.429-.477.183-.048.373-.241.422-.43.049-.19.344-.501.654-.693.39-.241.565-.474.565-.752 0-.222.094-.403.209-.403.204 0 1.124-.874 1.124-1.068 0-.054.152-.251.339-.437.186-.186.382-.56.436-.83s.202-.577.328-.682c.127-.105.23-.366.23-.581 0-.22.146-.468.334-.569.216-.115.333-.349.333-.662 0-.267.07-.528.156-.581.304-.188.655-1.106.768-2.009.063-.503.181-.914.262-.914s.147-.461.147-1.024c0-.782.069-1.073.292-1.236.374-.274.544-39.474.174-40.067-.195-.312-.483-.323-8.466-.335l-8.264-.013-.043.629c-.023.345-.113.7-.201.787-.218.219-.21 7.259.008 7.259.092 0 .167.262.167.583s-.073.583-.162.583c-.104 0-.179 5.142-.209 14.209l-.046 14.208-.375.713c-.206.393-.375.931-.375 1.197 0 .373-.085.497-.375.541-.228.035-.353.153-.319.303.03.135 0 .19-.069.122-.068-.069-.369.063-.669.291-.3.229-.663.416-.807.416-.143 0-.261.067-.261.148 0 .764-3.775.939-4.783.221-.285-.203-.67-.369-.856-.369-.192 0-.384-.144-.444-.333-.058-.183-.239-.333-.402-.333-.371 0-1.46-2.015-1.615-2.988-.06-.374-.174-.679-.254-.679-.211 0-.19-35.12.021-35.25.092-.057.167-.457.167-.889 0-1.437.495-1.361-8.891-1.361h-8.22zm54.671.077c-.207.039-.375.17-.375.292 0 .121-.103.26-.229.308-.237.091-.68 1.76-.843 3.17-.051.443-.194 1.043-.318 1.333-.383.893-.779 2.178-.778 2.522.001.351-.635 3.087-1.171 5.034-.18.656-.33 1.406-.333 1.666s-.116.619-.25.797c-.567.749-.133 1.758.856 1.992.265.063.782.185 1.149.27.367.086.967.263 1.333.394l.667.239.042 19.716c.024 10.844.099 19.772.167 19.84.221.219 32.806.239 33.07.02.128-.106.248-.405.268-.665s.155-.883.3-1.385c.145-.501.327-1.474.405-2.162.079-.687.307-1.662.507-2.166.201-.504.424-1.453.496-2.108s.204-1.33.292-1.5c.846-1.627 1.375-6.556.753-7.017-.336-.25-1.883-.281-1.883-.038 0 .114-2.313.145-7.042.095-7.898-.083-9.625-.176-9.625-.516 0-.124-.042-1.356-.093-2.737l-.093-2.513h7.904c8.629 0 8.782-.017 8.782-1.001 0-.171.225-.895.5-1.609.326-.846.5-1.602.5-2.168 0-.478.075-.915.167-.972.091-.056.166-.281.166-.5 0-.218.065-.436.143-.485.079-.048.184-.484.234-.968s.248-1.344.439-1.912.367-1.505.391-2.083l.043-1.052-.916-.108c-.505-.06-4.679-.116-9.276-.125l-8.359-.017-.112-1.708c-.062-.94-.088-2.196-.058-2.792l.055-1.083 17.052-.086.101-.957c.056-.526.145-1.347.197-1.824.053-.477.202-.955.331-1.062.153-.127.235-.533.235-1.161 0-.531.07-.991.155-1.021.085-.031.263-.902.396-1.937.157-1.218.337-1.986.512-2.18.188-.206.271-.611.271-1.317 0-.571.082-1.069.186-1.134.119-.073.149-.387.083-.866-.08-.587-.043-.795.17-.951.474-.347.173-1.692-.405-1.811-.52-.108-36.594-.099-37.159.009m194.75.666c.206.039.543.039.75 0 .206-.04.037-.073-.375-.073-.413 0-.582.033-.375.073m-69.429.34c2.446.026 6.496.026 9 0 2.505-.026.504-.047-4.446-.047s-6.999.021-4.554.047m16.603-.001c.761.031 1.961.031 2.667 0s.084-.056-1.383-.056-2.044.026-1.284.056m23.529 7.719c-.101.188-.159.417-.128.507.03.091.141-.063.246-.342.219-.581.153-.672-.118-.165m-282.162 5.741c.114.137.349.25.521.25.293 0 1.486 1.145 1.626 1.561.035.104.153.301.262.439.674.848.662 3.309-.017 3.569-.124.048-.225.213-.225.367 0 .409-1.005 1.318-1.717 1.553-.339.112-.616.272-.616.357 0 .396-5.127.175-5.575-.24l-.425-.395v-3.612c0-2.654.055-3.676.208-3.85.314-.357 5.662-.356 5.958.001m360.414 23.5c0 11.458.02 16.121.045 10.362.024-5.759.024-15.134 0-20.834-.025-5.699-.045-.987-.045 10.472m-128.042-11.584c0 .321.035.452.077.292.041-.16.041-.423 0-.583-.042-.161-.077-.03-.077.291m41.667 6.5c0 .321.034.452.076.292s.042-.423 0-.583c-.042-.161-.076-.03-.076.291m-274.205.994c0 .19.447.449.916.531.184.032.379.171.434.309.055.137.186.259.291.271.106.011.267.03.359.041.091.012.166.173.166.36 0 .186.113.381.25.434.138.053.25.176.25.273 0 .098.119.309.265.47.81.895.091 4.611-.897 4.644-.119.003-.419.212-.667.463l-.451.457-6.416.122v-4.004c0-2.202.045-4.123.101-4.268.118-.307 5.399-.407 5.399-.103m323.166 5.34c-.195.275-.318.5-.272.5.045 0 .243-.225.439-.5s.319-.5.273-.5-.244.225-.44.5m-124.708 1.12c.298.037.785.037 1.083 0s.054-.067-.541-.067c-.596 0-.84.03-.542.067m28.095 7.338c-.173.553-.168.588.042.301.199-.271.337-.926.195-.926-.023 0-.13.281-.237.625m102.053 5.292c.385.658.394.668.394.463 0-.097-.155-.353-.344-.57l-.343-.393zm2.09 3.754c.202.273.388.496.415.496.147 0-.36-.829-.552-.903-.135-.052-.078.116.137.407" fill="#065dac"/><path d="m364 .875c0 .069-.167.292-.371.496s-.383.447-.399.541c-.015.094-.079.505-.142.913s-.221.948-.351 1.2-.237.76-.237 1.128-.108.99-.24 1.383-.325 1.239-.428 1.881c-.103.641-.253 1.316-.333 1.5-.08.183-.186.708-.236 1.166-.049.459-.24 1.406-.423 2.105-.387 1.472-.6 3.419-.443 4.045l.109.434h4.478c4.881 0 5.033.034 4.509 1.013-.212.396-.208 40.316.004 40.653.17.271 14.868.493 16.783.254l.887-.111v-41.809l3.958-.014c6.135-.022 5.998.013 6.207-1.592.152-1.165.844-4.467 1.252-5.978.124-.458.282-1.208.35-1.666.142-.951.12-.863.359-1.436.099-.239.23-.914.289-1.5.059-.585.177-1.136.263-1.223.085-.087.155-.912.155-1.833v-1.675h-18c-9.9 0-18 .056-18 .125m-157.046.075c-.042.073-.13.426-.194.783-.065.357-.216.807-.336 1-.119.193-.262.705-.317 1.138-.055.434-.168.921-.251 1.084-.318.623-.532 1.141-.605 1.462-.218.97-.386 1.563-.488 1.729-.064.103-.142.318-.174.478-.033.161-.171.63-.309 1.043-.137.412-.3 1.012-.361 1.333s-.255.901-.432 1.29c-.176.388-.32 1.012-.32 1.385s-.066.637-.146.588c-.131-.081-.434.781-.581 1.654-.031.183-.112.46-.179.615-.297.683.723 1.514 2.322 1.894.275.065.598.259.718.43s.399.311.619.311c.763 0 .752-.287.748 19.733-.004 19.376.006 19.724.579 20.14.264.192 24.42.148 24.42-.044 0-.09.356-.163.791-.164.92-.001 2.626-.485 3.472-.985.324-.191.716-.348.871-.349.155-.002.443-.096.639-.209s.871-.502 1.5-.865 1.242-.757 1.364-.875c.121-.119.364-.216.541-.216s.303-.079.28-.176.296-.369.708-.604c.938-.535 1.523-.99 1.5-1.167-.009-.075.113-.163.271-.196.386-.079.729-.438.729-.761 0-.144.075-.262.167-.262.091 0 .475-.3.853-.667s.752-.667.832-.667c.079 0 .254-.263.389-.585.134-.322.36-.63.502-.685.141-.054.257-.205.257-.336s.113-.281.25-.333c.138-.053.25-.23.25-.394s.118-.343.261-.398.214-.175.157-.267c-.057-.093-.025-.168.072-.168.098 0 .177-.188.177-.417 0-.238.096-.417.225-.417.123 0 .36-.3.525-.666.165-.367.377-.667.47-.667s.122-.047.064-.105.004-.262.139-.454c.134-.192.244-.487.244-.657 0-.169.112-.42.25-.558.137-.137.25-.428.25-.646s.096-.457.214-.53c.117-.073.316-.546.44-1.05.125-.504.291-.959.369-1.01.079-.051.225-.538.325-1.083s.241-1.065.313-1.157c.136-.174.181-.389.591-2.833.522-3.117.616-4.368.524-7-.051-1.467-.142-2.854-.202-3.084-.06-.229-.2-1.054-.31-1.833-.111-.779-.318-1.642-.46-1.917-.143-.275-.313-.792-.378-1.149-.064-.357-.243-.841-.397-1.076s-.254-.43-.224-.434c.131-.017-.205-1.079-.608-1.924-.242-.504-.422-.973-.401-1.042.02-.068-.05-.125-.157-.125s-.148-.046-.091-.103c.056-.057-.151-.5-.461-.984-.31-.485-.519-.926-.464-.98.054-.055.027-.099-.061-.099-.087 0-.378-.375-.646-.834-.267-.458-.546-.833-.618-.833s-.132-.075-.132-.167c0-.156-.239-.454-1.008-1.256-.179-.186-.325-.43-.325-.541 0-.112-.09-.203-.2-.203s-.51-.318-.888-.708c-.912-.939-1.829-1.763-2.745-2.466-.413-.317-.788-.619-.834-.672s-.308-.208-.583-.344c-.669-.332-1.278-.685-1.583-.916-.138-.104-.513-.246-.834-.314-.32-.069-.675-.256-.787-.416-.113-.16-.463-.34-.78-.4-.316-.059-.601-.185-.632-.28-.032-.094-.373-.214-.759-.266s-.661-.159-.612-.239c.05-.08-.064-.145-.253-.145s-.343-.083-.343-.185c0-.113-.159-.145-.407-.083-.223.056-.453.027-.51-.065-.056-.092-.317-.167-.579-.167s-.822-.148-1.245-.33c-.422-.181-1.121-.377-1.553-.435-.431-.059-.973-.191-1.204-.294-.494-.222-22.091-.376-22.215-.158m104.421.273c-.206.104-.375.303-.376.442-.001.138-.113.466-.25.729s-.249.647-.249.854-.113.696-.25 1.085c-.138.39-.25.993-.25 1.341 0 .347-.078.658-.174.689-.095.032-.247.582-.337 1.223-.091.64-.313 1.561-.493 2.045-.181.485-.329 1.062-.329 1.282s-.061.438-.135.484c-.075.046-.154.438-.176.871-.023.434-.112.92-.198 1.082-.087.162-.158.543-.159.847 0 .304-.15.799-.333 1.099-.582.954-.192 2.371.652 2.371.267 0 3.097 1.224 3.154 1.364.031.074.2.136.375.136.313 0 .32.407.341 19.916.011 10.955.03 20.01.041 20.125.054.538 17.436.661 17.775.125.092-.146.159-3.025.16-6.958.003-6.926.08-7.665.657-6.25.251.617.699 1.37 1.054 1.773.16.182.292.488.292.68 0 .191.11.505.244.696.134.192.197.396.139.454s-.018.105.089.105.194.174.194.386c0 .211.137.531.303.71.266.285.687 1.443.736 2.022.009.111.077.164.152.118.12-.075.273.218 1.05 2.014.118.275.314.725.433 1 .12.275.204.559.187.63-.017.072.114.286.29.475.177.19.371.544.432.787.06.243.208.554.327.692.12.137.27.423.335.634l.117.384 10.394-.051c6.648-.032 10.451-.111 10.551-.217.344-.368.374-.891.069-1.196-.595-.594-1.209-1.537-1.209-1.856 0-.178-.109-.414-.241-.525-.133-.11-.327-.457-.431-.772-.103-.314-.243-.537-.309-.496-.131.08-1.186-1.895-1.186-2.221 0-.109-.131-.341-.291-.516-.161-.175-.554-.828-.875-1.451-.321-.624-.623-1.172-.67-1.217-.048-.046-.183-.271-.3-.5s-.397-.717-.621-1.084c-.225-.366-.561-.982-.747-1.368s-.411-.746-.5-.801-.162-.265-.162-.467-.15-.46-.334-.575c-.183-.114-.333-.308-.333-.431 0-.122-.187-.44-.416-.707-.23-.266-.417-.544-.417-.617s-.145-.432-.322-.798c-.317-.656-.317-.667 0-.865.177-.111.322-.3.322-.421 0-.12.075-.173.166-.116.092.056.167-.012.167-.152 0-.139.262-.516.583-.837s.584-.624.584-.674.225-.326.5-.614c.275-.287.5-.622.5-.744 0-.121.227-.338.505-.482s.466-.325.419-.402c-.048-.078.024-.234.161-.347.136-.113.248-.298.248-.411s.184-.404.409-.646c.224-.243.369-.441.322-.441-.048 0 .068-.218.258-.484.189-.267.347-.585.35-.709.003-.123.115-.37.25-.548.134-.177.244-.459.244-.625 0-.165.103-.301.229-.301.138 0 .271-.265.335-.667.059-.366.181-.666.272-.666.09 0 .164-.144.164-.32s.106-.532.235-.792c.432-.87.932-2.676.932-3.369 0-.377.061-.686.136-.686.534 0 .556-6.168.028-8.008-.09-.315-.164-.761-.165-.991s-.116-.638-.256-.907c-.141-.269-.33-.82-.42-1.225-.091-.404-.276-.845-.411-.98-.135-.136-.245-.381-.245-.545 0-.165-.154-.494-.341-.732-.188-.239-.329-.482-.315-.54.015-.059-.244-.401-.575-.762-.332-.36-.603-.802-.603-.982 0-.341-.545-.995-.83-.995-.09 0-.208-.178-.263-.395-.054-.217-.281-.493-.503-.611-.222-.119-.407-.298-.411-.397-.005-.099-.301-.405-.659-.68-.359-.275-.655-.594-.659-.708-.007-.185-.212-.275-.532-.234-.059.007-.306-.171-.55-.397s-.543-.411-.664-.411c-.122 0-.315-.113-.429-.25-.114-.138-.305-.25-.424-.25s-.44-.187-.712-.417c-.272-.229-.611-.416-.753-.416s-.3-.069-.353-.154c-.052-.084-.45-.287-.884-.45-.435-.163-.828-.339-.874-.392-.098-.114-1.848-.666-2.064-.652-.082.005-.2-.074-.263-.176s-.521-.232-1.019-.289c-.497-.057-1.041-.198-1.209-.313-.422-.288-27.835-.306-28.403-.018m-48.273.23c-.02.02-.266.054-.547.076-.49.037-.522.087-.814 1.296-.167.692-.325 1.333-.352 1.425-.028.092-.096.392-.153.667s-.246.805-.42 1.177c-.174.373-.316.92-.316 1.217 0 .296-.106.744-.236.995-.129.25-.285.753-.346 1.116-.061.364-.228.961-.37 1.328s-.29.929-.328 1.25c-.039.321-.166.733-.284.917-.575.893-.779 3.17-.353 3.916.131.23.241.347.244.261.008-.212.673.512.673.732 0 .096.08.174.179.174.225 0 .545.317.801.795.109.204.308.372.443.372.173 0 .244.192.244.666 0 .367-.066.667-.145.667-.163 0-.476 1.096-.58 2.024-.037.334-.131.709-.208.833-.177.283-.245.552-.352 1.393-.047.367-.194.791-.328.942-.133.151-.259.639-.28 1.083-.02.445-.195 1.146-.388 1.558-.302.648-.538 1.56-.593 2.292-.008.115-.068.208-.132.208-.065 0-.209.469-.32 1.042-.216 1.11-.672 2.681-1.175 4.042-.17.458-.356 1.19-.414 1.626-.058.435-.213.998-.345 1.25-.131.251-.239.63-.239.842-.002.525-.517 2.086-.739 2.237-.098.068-.132.124-.075.125.057.002-.041.509-.218 1.128-.412 1.436-.769 2.858-1.036 4.125-.116.55-.287 1.15-.379 1.333-.093.184-.254.499-.359.702-.104.203-.147.481-.094.618.105.275-.232 1.459-.458 1.606-.137.09-.253.759-.291 1.687-.011.246-.119.547-.242.67-.122.122-.265.521-.316.887-.052.365-.189.889-.305 1.164s-.227.556-.246.625c-.019.068-.05.143-.069.166s-.06.23-.092.459c-.031.229-.149.769-.263 1.201-.362 1.381-.89 1.299 8.344 1.299 4.468 0 8.464-.047 8.879-.104.876-.12 1.072-.375 1.364-1.773.073-.345.199-.669.282-.72s.113-.154.066-.229c-.046-.075.028-.229.164-.343.137-.113.248-.409.248-.657 0-.249.057-.508.125-.577.069-.069.128-.175.132-.236.003-.061.14-.387.304-.723.164-.337.314-.712.332-.834.019-.121.209-.58.422-1.019l.388-.798 7.58.048c8.688.055 8.062-.071 8.286 1.663.125.974.435 1.968.612 1.968.062 0 .118.306.123.681.005.374.126.859.269 1.077.144.219.261.611.261.872s.152.789.338 1.174l.337.699 9.371-.043 9.37-.043-.052-.833c-.029-.459-.154-.99-.277-1.18-.123-.191-.274-.753-.334-1.25s-.247-1.204-.415-1.57c-.168-.367-.355-1.024-.416-1.46-.06-.435-.217-.998-.348-1.25-.132-.251-.239-.668-.24-.926s-.081-.62-.179-.803-.211-.459-.251-.614c-.47-1.823-1.254-4.604-1.466-5.197-.147-.413-.268-.994-.269-1.292-.002-.298-.082-.542-.179-.542s-.13-.075-.074-.166c.057-.092.039-.167-.04-.167-.125 0-.554-1.592-.634-2.352-.015-.148-.085-.361-.154-.473-.138-.224-.44-1.244-.938-3.175-.178-.687-.353-1.363-.388-1.5-.036-.138-.185-.475-.33-.75s-.264-.772-.265-1.105c0-.333-.113-.697-.251-.812-.156-.129-.25-.497-.251-.978 0-.425-.12-.997-.265-1.272-.146-.275-.295-.687-.333-.916-.037-.229-.11-.679-.163-1s-.191-.734-.307-.917-.259-.671-.317-1.083c-.153-1.083-.212-1.315-.588-2.334-.425-1.151-.813-2.559-.935-3.388-.051-.351-.205-.75-.342-.887s-.249-.4-.249-.584c0-.304-.444-2.095-.843-3.402-.086-.282-.157-.67-.157-.862s-.068-.374-.151-.404c-.083-.031-.196-.341-.25-.689-.099-.632-.649-2.527-.943-3.25-.086-.21-.156-.592-.156-.847s-.053-.517-.117-.582c-.065-.064-.144-.319-.177-.565s-.14-.544-.237-.661c-.097-.116-.118-.212-.047-.212.072 0 .012-.131-.133-.292-.145-.16-.315-.741-.379-1.291-.063-.55-.17-1.038-.238-1.084-.28-.191-.478-.816-.59-1.87-.066-.616-.215-1.2-.332-1.296-.178-.148-28.835-.359-28.981-.214m-35.602 17.195c0 .082.264.198.587.258.868.163 3.883 2.738 3.649 3.117-.043.07.073.208.259.308.186.099.338.324.338.498 0 .175.067.359.149.41.417.257 1.275 2.471 1.329 3.428.008.137.133 1 .278 1.916.372 2.352-.097 6.551-.788 7.051-.166.12-.301.404-.301.631s-.113.455-.25.508c-.138.053-.25.16-.25.237 0 .91-1.933 2.459-4.238 3.398-.931.379-3.465.544-3.682.239-.104-.147-.147-4.202-.118-11.189l.045-10.958h1.497c.823 0 1.496.067 1.496.148m108.333.401c.23.049.586.096.792.104.216.008.375.12.375.264 0 .137.059.25.131.25.234 0 1.221.909 1.266 1.166.024.138.17.541.324.896.357.825.388 2.86.045 2.992-.129.049-.284.313-.343.585-.06.272-.292.633-.516.801s-.407.393-.407.5c0 .176-.708.526-1.333.658-.206.043-4.529.103-5.542.076-.27-.007-.292-.324-.292-4.266v-4.258l2.542.071c1.398.039 2.729.111 2.958.161m-56.681 3.326c.113.527.266.958.34.958s.168.456.208 1.014c.04.557.143 1.063.228 1.125.086.061.326.749.534 1.528s.531 1.942.718 2.583c.187.642.42 1.598.519 2.125s.245.959.324.959.144.3.144.666c0 .367.058.667.128.667.175 0 .582 1.794.454 2.002-.13.21-7.074.218-7.406.007-.183-.116-.201-.244-.072-.539.093-.213.189-.755.213-1.206.025-.451.142-.976.261-1.167.12-.191.311-.872.426-1.514.115-.641.286-1.354.379-1.583.094-.229.158-.474.143-.543-.015-.07.135-.707.333-1.417.198-.709.411-1.703.475-2.207.063-.504.24-1.198.393-1.541.152-.344.224-.625.158-.625-.065 0-.029-.09.081-.2s.2-.383.2-.606c0-.576.368-1.73.502-1.575.062.072.204.562.317 1.089" fill="#33a44c"/></g></svg>