<svg width="152" height="51" viewBox="0 0 152 51" fill="none" xmlns="http://www.w3.org/2000/svg">
<path d="M44.784 12.651C46.0302 12.651 47.1577 12.9082 48.1665 13.4225C49.1753 13.917 49.9666 14.6885 50.5402 15.7369C51.1337 16.7853 51.4304 18.1403 51.4304 19.8019V29H45.7928V20.7217C45.7928 19.5744 45.5554 18.7436 45.0807 18.2293C44.6257 17.6952 43.9828 17.4281 43.152 17.4281C42.5586 17.4281 42.0146 17.5666 41.5201 17.8435C41.0256 18.1007 40.6399 18.5062 40.3629 19.0601C40.086 19.6139 39.9475 20.3359 39.9475 21.2261V29H34.31V12.9181H39.6805V17.4875L38.642 16.1523C39.2552 14.9852 40.0959 14.1148 41.1641 13.5412C42.2322 12.9478 43.4389 12.651 44.784 12.651ZM54.9699 29V12.9181H60.6074V29H54.9699ZM57.7886 11.1378C56.76 11.1378 55.9292 10.851 55.2962 10.2773C54.6633 9.70367 54.3468 8.99156 54.3468 8.14098C54.3468 7.2904 54.6633 6.57828 55.2962 6.00463C55.9292 5.43099 56.76 5.14416 57.7886 5.14416C58.8173 5.14416 59.6481 5.4211 60.281 5.97496C60.914 6.50905 61.2305 7.20138 61.2305 8.05196C61.2305 8.94211 60.914 9.68389 60.281 10.2773C59.6678 10.851 58.837 11.1378 57.7886 11.1378ZM71.6925 29.4154C69.9913 29.4154 68.3495 29.2077 66.767 28.7923C65.2043 28.3571 63.9285 27.8033 62.9394 27.1307L64.8681 22.7987C65.7978 23.3921 66.8659 23.8866 68.0726 24.2822C69.299 24.6581 70.5155 24.846 71.7222 24.846C72.5332 24.846 73.186 24.7768 73.6805 24.6383C74.175 24.4801 74.5311 24.2822 74.7487 24.0449C74.986 23.7877 75.1047 23.491 75.1047 23.1547C75.1047 22.68 74.8871 22.3041 74.4519 22.0272C74.0168 21.7503 73.453 21.5228 72.7607 21.3448C72.0683 21.1667 71.2969 20.9887 70.4463 20.8107C69.6155 20.6327 68.7748 20.4052 67.9242 20.1282C67.0934 19.8513 66.3319 19.4952 65.6395 19.0601C64.9472 18.6051 64.3834 18.0216 63.9482 17.3095C63.5131 16.5776 63.2955 15.6577 63.2955 14.55C63.2955 13.3038 63.6318 12.1763 64.3043 11.1675C64.9966 10.1586 66.0252 9.34762 67.3901 8.73441C68.755 8.1212 70.4562 7.81459 72.4936 7.81459C73.8585 7.81459 75.1937 7.97284 76.4993 8.28934C77.8246 8.58605 79.0016 9.03112 80.0302 9.62455L78.2202 13.9863C77.2312 13.4522 76.252 13.0565 75.2827 12.7994C74.3135 12.5225 73.3739 12.384 72.464 12.384C71.6529 12.384 71.0002 12.473 70.5056 12.651C70.0111 12.8093 69.6551 13.0269 69.4375 13.3038C69.2199 13.5807 69.1111 13.8972 69.1111 14.2533C69.1111 14.7083 69.3188 15.0742 69.7342 15.3511C70.1694 15.6083 70.7331 15.8259 71.4255 16.0039C72.1376 16.1622 72.909 16.3303 73.7398 16.5083C74.5904 16.6864 75.4311 16.9138 76.2619 17.1908C77.1125 17.4479 77.8839 17.804 78.5763 18.2589C79.2686 18.6941 79.8225 19.2777 80.2379 20.0096C80.673 20.7217 80.8906 21.6217 80.8906 22.7097C80.8906 23.9163 80.5445 25.0339 79.8521 26.0625C79.1796 27.0714 78.1609 27.8824 76.796 28.4956C75.4509 29.1088 73.7497 29.4154 71.6925 29.4154ZM90.5179 29.267C88.4606 29.267 86.8584 28.7626 85.7111 27.7538C84.5638 26.7252 83.9901 25.1823 83.9901 23.1251V9.32784H89.6277V23.0657C89.6277 23.6394 89.786 24.0943 90.1025 24.4306C90.419 24.7471 90.8245 24.9053 91.319 24.9053C91.9915 24.9053 92.5652 24.7372 93.0399 24.4009L94.4345 28.3472C93.9597 28.6637 93.3762 28.8912 92.6839 29.0297C91.9915 29.1879 91.2695 29.267 90.5179 29.267ZM81.6461 17.7249V13.5115H93.307V17.7249H81.6461ZM106.43 29V26.0032L106.044 25.2614V19.7425C106.044 18.8524 105.767 18.1699 105.213 17.6952C104.679 17.2007 103.819 16.9534 102.632 16.9534C101.86 16.9534 101.079 17.082 100.288 17.3391C99.4964 17.5765 98.8239 17.9128 98.27 18.348L96.371 14.5203C97.2809 13.9269 98.3689 13.4719 99.6349 13.1555C100.921 12.8192 102.197 12.651 103.462 12.651C106.074 12.651 108.091 13.2544 109.515 14.461C110.959 15.6479 111.681 17.5172 111.681 20.0689V29H106.43ZM101.682 29.267C100.396 29.267 99.3085 29.0495 98.4183 28.6143C97.5282 28.1791 96.8458 27.5857 96.371 26.834C95.9161 26.0823 95.6886 25.2416 95.6886 24.3119C95.6886 23.3229 95.9358 22.4723 96.4304 21.7602C96.9447 21.0283 97.726 20.4744 98.7744 20.0986C99.8228 19.7029 101.178 19.5051 102.839 19.5051H106.637V22.4426H103.611C102.701 22.4426 102.058 22.591 101.682 22.8877C101.326 23.1844 101.148 23.58 101.148 24.0745C101.148 24.5691 101.336 24.9647 101.712 25.2614C102.088 25.5581 102.602 25.7065 103.255 25.7065C103.868 25.7065 104.422 25.5581 104.916 25.2614C105.431 24.9449 105.807 24.4702 106.044 23.8372L106.815 25.9142C106.519 27.0219 105.935 27.8626 105.065 28.4362C104.214 28.9901 103.087 29.267 101.682 29.267ZM123.662 29.267C121.882 29.267 120.289 28.911 118.885 28.1989C117.5 27.4868 116.412 26.5076 115.621 25.2614C114.83 23.9954 114.434 22.5514 114.434 20.9294C114.434 19.3073 114.83 17.8732 115.621 16.627C116.412 15.3808 117.5 14.4115 118.885 13.7192C120.289 13.0071 121.882 12.651 123.662 12.651C125.482 12.651 127.054 13.0368 128.38 13.8082C129.705 14.5797 130.644 15.6676 131.198 17.0721L126.837 19.2974C126.461 18.5458 125.996 18.0018 125.442 17.6655C124.888 17.3095 124.285 17.1314 123.632 17.1314C122.979 17.1314 122.386 17.2798 121.852 17.5765C121.318 17.8732 120.892 18.3084 120.576 18.882C120.279 19.4359 120.131 20.1183 120.131 20.9294C120.131 21.7602 120.279 22.4624 120.576 23.036C120.892 23.6097 121.318 24.0449 121.852 24.3416C122.386 24.6383 122.979 24.7867 123.632 24.7867C124.285 24.7867 124.888 24.6185 125.442 24.2822C125.996 23.9262 126.461 23.3723 126.837 22.6206L131.198 24.846C130.644 26.2504 129.705 27.3384 128.38 28.1099C127.054 28.8813 125.482 29.267 123.662 29.267ZM131.104 29L138.492 19.2974L138.373 22.502L131.282 12.9181H137.632L141.608 18.5853L139.234 18.704L143.447 12.9181H149.411L142.32 22.2943V19.2084L149.619 29H143.18L139.026 22.947L141.4 23.2734L137.216 29H131.104Z" fill="#303030"/>
<g clip-path="url(#clip0_1392_2967)">
<rect width="31.6567" height="36.9796" fill="white"/>
<path d="M0 0H31.6567V9.27232H0V0Z" fill="#ACACAC"/>
<rect y="9.27246" width="31.6567" height="9.27232" fill="#797979"/>
<path d="M0 18.5449H31.6567V27.8172H0V18.5449Z" fill="#58595B"/>
<path d="M0 27.8169H31.6567V37.0892H0V27.8169Z" fill="#303030"/>
<path d="M15.9682 32.8872C12.4039 32.8872 9.62144 31.9099 7.62084 29.9553C5.62025 28.0007 4.61995 25.2297 4.61995 21.6425V8.25916H11.4496V21.4355C11.4496 23.5051 11.852 24.9883 12.6568 25.8851C13.4847 26.7819 14.6114 27.2303 16.0371 27.2303C17.4629 27.2303 18.5781 26.7819 19.383 25.8851C20.1878 24.9883 20.5902 23.5051 20.5902 21.4355V8.25916H27.3164V21.6425C27.3164 25.2297 26.3161 28.0007 24.3155 29.9553C22.3149 31.9099 19.5324 32.8872 15.9682 32.8872Z" fill="white"/>
</g>
<path d="M65.7349 47.16C64.8815 47.16 64.0869 47.0213 63.3509 46.744C62.6255 46.456 61.9909 46.056 61.4469 45.544C60.9135 45.0213 60.4975 44.408 60.1989 43.704C59.9002 43 59.7509 42.232 59.7509 41.4C59.7509 40.568 59.9002 39.8 60.1989 39.096C60.4975 38.392 60.9189 37.784 61.4629 37.272C62.0069 36.7493 62.6415 36.3493 63.3669 36.072C64.0922 35.784 64.8869 35.64 65.7509 35.64C66.6682 35.64 67.5055 35.8 68.2629 36.12C69.0202 36.4293 69.6602 36.8933 70.1829 37.512L68.8389 38.776C68.4335 38.3387 67.9802 38.0133 67.4789 37.8C66.9775 37.576 66.4335 37.464 65.8469 37.464C65.2602 37.464 64.7215 37.56 64.2309 37.752C63.7509 37.944 63.3295 38.216 62.9669 38.568C62.6149 38.92 62.3375 39.336 62.1349 39.816C61.9429 40.296 61.8469 40.824 61.8469 41.4C61.8469 41.976 61.9429 42.504 62.1349 42.984C62.3375 43.464 62.6149 43.88 62.9669 44.232C63.3295 44.584 63.7509 44.856 64.2309 45.048C64.7215 45.24 65.2602 45.336 65.8469 45.336C66.4335 45.336 66.9775 45.2293 67.4789 45.016C67.9802 44.792 68.4335 44.456 68.8389 44.008L70.1829 45.288C69.6602 45.896 69.0202 46.36 68.2629 46.68C67.5055 47 66.6629 47.16 65.7349 47.16ZM75.4958 47.112C74.6211 47.112 73.8424 46.9253 73.1598 46.552C72.4771 46.168 71.9384 45.6453 71.5438 44.984C71.1491 44.3227 70.9518 43.5707 70.9518 42.728C70.9518 41.8747 71.1491 41.1227 71.5438 40.472C71.9384 39.8107 72.4771 39.2933 73.1598 38.92C73.8424 38.5467 74.6211 38.36 75.4958 38.36C76.3811 38.36 77.1651 38.5467 77.8478 38.92C78.5411 39.2933 79.0798 39.8053 79.4638 40.456C79.8584 41.1067 80.0558 41.864 80.0558 42.728C80.0558 43.5707 79.8584 44.3227 79.4638 44.984C79.0798 45.6453 78.5411 46.168 77.8478 46.552C77.1651 46.9253 76.3811 47.112 75.4958 47.112ZM75.4958 45.4C75.9864 45.4 76.4238 45.2933 76.8078 45.08C77.1918 44.8667 77.4904 44.5573 77.7038 44.152C77.9278 43.7467 78.0398 43.272 78.0398 42.728C78.0398 42.1733 77.9278 41.6987 77.7038 41.304C77.4904 40.8987 77.1918 40.5893 76.8078 40.376C76.4238 40.1627 75.9918 40.056 75.5118 40.056C75.0211 40.056 74.5838 40.1627 74.1998 40.376C73.8264 40.5893 73.5278 40.8987 73.3038 41.304C73.0798 41.6987 72.9678 42.1733 72.9678 42.728C72.9678 43.272 73.0798 43.7467 73.3038 44.152C73.5278 44.5573 73.8264 44.8667 74.1998 45.08C74.5838 45.2933 75.0158 45.4 75.4958 45.4ZM92.7523 38.36C93.4349 38.36 94.0376 38.4933 94.5603 38.76C95.0936 39.0267 95.5096 39.4373 95.8083 39.992C96.1069 40.536 96.2563 41.24 96.2563 42.104V47H94.2563V42.36C94.2563 41.6027 94.0909 41.0373 93.7603 40.664C93.4296 40.2907 92.9549 40.104 92.3363 40.104C91.8989 40.104 91.5096 40.2 91.1683 40.392C90.8376 40.584 90.5763 40.8667 90.3843 41.24C90.2029 41.6133 90.1123 42.088 90.1123 42.664V47H88.1123V42.36C88.1123 41.6027 87.9469 41.0373 87.6163 40.664C87.2856 40.2907 86.8109 40.104 86.1923 40.104C85.7549 40.104 85.3656 40.2 85.0243 40.392C84.6936 40.584 84.4323 40.8667 84.2403 41.24C84.0589 41.6133 83.9683 42.088 83.9683 42.664V47H81.9683V38.456H83.8723V40.728L83.5363 40.056C83.8243 39.5013 84.2403 39.08 84.7843 38.792C85.3389 38.504 85.9683 38.36 86.6723 38.36C87.4723 38.36 88.1656 38.5573 88.7523 38.952C89.3496 39.3467 89.7443 39.944 89.9363 40.744L89.1523 40.472C89.4296 39.832 89.8883 39.32 90.5283 38.936C91.1683 38.552 91.9096 38.36 92.7523 38.36ZM109.596 38.36C110.279 38.36 110.881 38.4933 111.404 38.76C111.937 39.0267 112.353 39.4373 112.652 39.992C112.951 40.536 113.1 41.24 113.1 42.104V47H111.1V42.36C111.1 41.6027 110.935 41.0373 110.604 40.664C110.273 40.2907 109.799 40.104 109.18 40.104C108.743 40.104 108.353 40.2 108.012 40.392C107.681 40.584 107.42 40.8667 107.228 41.24C107.047 41.6133 106.956 42.088 106.956 42.664V47H104.956V42.36C104.956 41.6027 104.791 41.0373 104.46 40.664C104.129 40.2907 103.655 40.104 103.036 40.104C102.599 40.104 102.209 40.2 101.868 40.392C101.537 40.584 101.276 40.8667 101.084 41.24C100.903 41.6133 100.812 42.088 100.812 42.664V47H98.812V38.456H100.716V40.728L100.38 40.056C100.668 39.5013 101.084 39.08 101.628 38.792C102.183 38.504 102.812 38.36 103.516 38.36C104.316 38.36 105.009 38.5573 105.596 38.952C106.193 39.3467 106.588 39.944 106.78 40.744L105.996 40.472C106.273 39.832 106.732 39.32 107.372 38.936C108.012 38.552 108.753 38.36 109.596 38.36ZM119.687 47.112C118.738 47.112 117.906 46.9253 117.191 46.552C116.487 46.168 115.938 45.6453 115.543 44.984C115.159 44.3227 114.967 43.5707 114.967 42.728C114.967 41.8747 115.154 41.1227 115.527 40.472C115.911 39.8107 116.434 39.2933 117.095 38.92C117.767 38.5467 118.53 38.36 119.383 38.36C120.215 38.36 120.957 38.5413 121.607 38.904C122.258 39.2667 122.77 39.7787 123.143 40.44C123.517 41.1013 123.703 41.88 123.703 42.776C123.703 42.8613 123.698 42.9573 123.687 43.064C123.687 43.1707 123.682 43.272 123.671 43.368H116.551V42.04H122.615L121.831 42.456C121.842 41.9653 121.741 41.5333 121.527 41.16C121.314 40.7867 121.021 40.4933 120.647 40.28C120.285 40.0667 119.863 39.96 119.383 39.96C118.893 39.96 118.461 40.0667 118.087 40.28C117.725 40.4933 117.437 40.792 117.223 41.176C117.021 41.5493 116.919 41.992 116.919 42.504V42.824C116.919 43.336 117.037 43.7893 117.271 44.184C117.506 44.5787 117.837 44.8827 118.263 45.096C118.69 45.3093 119.181 45.416 119.735 45.416C120.215 45.416 120.647 45.3413 121.031 45.192C121.415 45.0427 121.757 44.808 122.055 44.488L123.127 45.72C122.743 46.168 122.258 46.5147 121.671 46.76C121.095 46.9947 120.434 47.112 119.687 47.112ZM125.625 47V38.456H127.529V40.808L127.305 40.12C127.561 39.544 127.961 39.1067 128.505 38.808C129.059 38.5093 129.747 38.36 130.569 38.36V40.264C130.483 40.2427 130.403 40.232 130.329 40.232C130.254 40.2213 130.179 40.216 130.105 40.216C129.347 40.216 128.745 40.44 128.297 40.888C127.849 41.3253 127.625 41.9813 127.625 42.856V47H125.625ZM136.107 47.112C135.211 47.112 134.411 46.9253 133.707 46.552C133.014 46.168 132.47 45.6453 132.075 44.984C131.68 44.3227 131.483 43.5707 131.483 42.728C131.483 41.8747 131.68 41.1227 132.075 40.472C132.47 39.8107 133.014 39.2933 133.707 38.92C134.411 38.5467 135.211 38.36 136.107 38.36C136.939 38.36 137.67 38.5307 138.299 38.872C138.939 39.2027 139.424 39.6933 139.755 40.344L138.219 41.24C137.963 40.8347 137.648 40.536 137.275 40.344C136.912 40.152 136.518 40.056 136.091 40.056C135.6 40.056 135.158 40.1627 134.763 40.376C134.368 40.5893 134.059 40.8987 133.835 41.304C133.611 41.6987 133.499 42.1733 133.499 42.728C133.499 43.2827 133.611 43.7627 133.835 44.168C134.059 44.5627 134.368 44.8667 134.763 45.08C135.158 45.2933 135.6 45.4 136.091 45.4C136.518 45.4 136.912 45.304 137.275 45.112C137.648 44.92 137.963 44.6213 138.219 44.216L139.755 45.112C139.424 45.752 138.939 46.248 138.299 46.6C137.67 46.9413 136.939 47.112 136.107 47.112ZM145.375 47.112C144.426 47.112 143.594 46.9253 142.879 46.552C142.175 46.168 141.626 45.6453 141.231 44.984C140.847 44.3227 140.655 43.5707 140.655 42.728C140.655 41.8747 140.842 41.1227 141.215 40.472C141.599 39.8107 142.122 39.2933 142.783 38.92C143.455 38.5467 144.218 38.36 145.071 38.36C145.903 38.36 146.644 38.5413 147.295 38.904C147.946 39.2667 148.458 39.7787 148.831 40.44C149.204 41.1013 149.391 41.88 149.391 42.776C149.391 42.8613 149.386 42.9573 149.375 43.064C149.375 43.1707 149.37 43.272 149.359 43.368H142.239V42.04H148.303L147.519 42.456C147.53 41.9653 147.428 41.5333 147.215 41.16C147.002 40.7867 146.708 40.4933 146.335 40.28C145.972 40.0667 145.551 39.96 145.071 39.96C144.58 39.96 144.148 40.0667 143.775 40.28C143.412 40.4933 143.124 40.792 142.911 41.176C142.708 41.5493 142.607 41.992 142.607 42.504V42.824C142.607 43.336 142.724 43.7893 142.959 44.184C143.194 44.5787 143.524 44.8827 143.951 45.096C144.378 45.3093 144.868 45.416 145.423 45.416C145.903 45.416 146.335 45.3413 146.719 45.192C147.103 45.0427 147.444 44.808 147.743 44.488L148.815 45.72C148.431 46.168 147.946 46.5147 147.359 46.76C146.783 46.9947 146.122 47.112 145.375 47.112Z" fill="#303030"/>
<defs>
<clipPath id="clip0_1392_2967">
<rect width="31.6567" height="36.9796" fill="white"/>
</clipPath>
</defs>
</svg>
